<svg width="24" height="24" viewBox="0 0 24 24" fill="none" xmlns="http://www.w3.org/2000/svg">
<path d="M12 12C14.7614 12 17 9.76142 17 7C17 4.23858 14.7614 2 12 2C9.23858 2 7 4.23858 7 7C7 9.76142 9.23858 12 12 12Z" fill="#066FDB" stroke="#066FDB" stroke-linecap="round" stroke-linejoin="round"/>
<path d="M12 15.5C16.5641 15.5 19.2411 17.8995 20.1475 20.2305C20.2739 20.5556 20.1994 20.8493 19.9961 21.0811C19.7823 21.3247 19.419 21.5 19.001 21.5H4.99902C4.58102 21.5 4.21771 21.3247 4.00391 21.0811C3.80064 20.8493 3.72614 20.5556 3.85254 20.2305C4.75885 17.8995 7.43589 15.5 12 15.5Z" fill="#066FDB" stroke="#066FDB"/>
</svg>
