<svg width="20" height="20" viewBox="0 0 20 20" fill="none" xmlns="http://www.w3.org/2000/svg">
<path d="M9.72749 5.31C8.99749 5.31 7.86749 4.48 6.67749 4.51C5.10749 4.53 3.66749 5.42 2.85749 6.83C1.22749 9.66 2.43749 13.84 4.02749 16.14C4.80749 17.26 5.72749 18.52 6.94749 18.48C8.11749 18.43 8.55749 17.72 9.97749 17.72C11.3875 17.72 11.7875 18.48 13.0275 18.45C14.2875 18.43 15.0875 17.31 15.8575 16.18C16.7475 14.88 17.1175 13.62 17.1375 13.55C17.1075 13.54 14.6875 12.61 14.6575 9.81C14.6375 7.47 16.5675 6.35 16.6575 6.3C15.5575 4.69 13.8675 4.51 13.2775 4.47C11.7375 4.35 10.4475 5.31 9.72749 5.31ZM12.3275 2.95C12.9775 2.17 13.4075 1.08 13.2875 0C12.3575 0.04 11.2375 0.62 10.5675 1.4C9.96749 2.09 9.44749 3.2 9.58749 4.26C10.6175 4.34 11.6775 3.73 12.3275 2.95Z" fill="black"/>
</svg>
