<svg width="20" height="20" viewBox="0 0 20 20" fill="none" xmlns="http://www.w3.org/2000/svg">
<path d="M9.99976 1.66748C14.6021 1.66748 18.3337 5.39812 18.3337 10.0005C18.3337 14.6029 14.6021 18.3335 9.99976 18.3335C5.3975 18.3334 1.66675 14.6028 1.66675 10.0005C1.66675 5.3982 5.3975 1.66761 9.99976 1.66748ZM12.241 7.76123C11.9806 7.50088 11.558 7.50088 11.2976 7.76123L10.0007 9.05713L8.70483 7.76123C8.44454 7.50122 8.02273 7.50119 7.76245 7.76123C7.5021 8.02158 7.5021 8.44424 7.76245 8.70459L9.05835 10.0005L7.76245 11.2964C7.5021 11.5567 7.5021 11.9794 7.76245 12.2397C8.02273 12.4998 8.44454 12.4998 8.70483 12.2397L10.0007 10.9429L11.2976 12.2397C11.558 12.5001 11.9806 12.5001 12.241 12.2397C12.5011 11.9794 12.5012 11.5567 12.241 11.2964L10.9441 10.0005L12.241 8.70459C12.5012 8.44431 12.5011 8.0216 12.241 7.76123Z" fill="#DADADA"/>
</svg>
