<svg width="24" height="24" viewBox="0 0 24 24" fill="none" xmlns="http://www.w3.org/2000/svg">
<path d="M12 3H8C5.23858 3 3 5.23858 3 8V16C3 18.7614 5.23858 21 8 21H16C18.7614 21 21 18.7614 21 16V12" stroke="#066FDB" stroke-width="1.6" stroke-linecap="round"/>
<path d="M9.27665 14.8884C8.46956 14.9397 7.844 14.1938 8.03439 13.4079L8.71483 10.606C8.77521 10.3574 8.91277 10.134 9.10879 9.96951L17.367 3.04008C17.8746 2.61438 18.6311 2.68124 19.0571 3.18864L21.2541 5.80696C21.68 6.31456 21.6144 7.07117 21.1069 7.49721L12.8488 14.4266C12.6528 14.591 12.4094 14.6885 12.1541 14.7048L9.27665 14.8884Z" stroke="#066FDB" stroke-width="1.6"/>
<path d="M18.9352 8.89156C16.9131 7.70362 16.176 6.67559 15.4192 4.02969" stroke="#066FDB" stroke-width="1.6"/>
</svg>
