<?xml version="1.0" encoding="UTF-8" standalone="no"?>
<svg
  width="18"
  height="18"
  viewBox="0 0 18 18"
  fill="none"
  version="1.1"
  id="svg1"
  xmlns="http://www.w3.org/2000/svg"
  xmlns:svg="http://www.w3.org/2000/svg"
>
  <defs id="defs1" />
  <g
    id="g2"
    transform="matrix(0.94160142,0,0,0.94160142,-0.16953217,0.15065209)"
    style="stroke-width: 1.06202; fill: #9d9fa0; fill-opacity: 1"
  >
    <path
      d="M 9.73824,7.00864 C 9.1045,7.00864 8.4967,7.2604 8.04858,7.70852 7.60045,8.15665 7.34869,8.76444 7.34869,9.39819 c 0,0.63371 0.25176,1.24151 0.69989,1.68971 0.44812,0.4481 1.05592,0.6998 1.68966,0.6998 0.63376,0 1.24156,-0.2517 1.68966,-0.6998 0.4481,-0.4482 0.6999,-1.056 0.6999,-1.68971 0,-0.63375 -0.2518,-1.24154 -0.6999,-1.68967 C 10.9798,7.2604 10.372,7.00864 9.73824,7.00864 Z m 0,6.37216 C 8.682,13.3808 7.66901,12.9612 6.92213,12.2143 6.17525,11.4674 5.75566,10.4544 5.75566,9.39819 5.75566,8.34194 6.17525,7.32896 6.92213,6.58208 7.66901,5.8352 8.682,5.41561 9.73824,5.41561 c 1.05626,0 2.06926,0.41959 2.81616,1.16647 0.7468,0.74688 1.1664,1.75986 1.1664,2.81611 0,1.05621 -0.4196,2.06921 -1.1664,2.81611 -0.7469,0.7469 -1.7599,1.1665 -2.81616,1.1665 z m 0,-9.95648 c -3.98258,0 -7.3837,2.47716 -8.761678,5.97387 1.377978,3.49671 4.779098,5.97391 8.761678,5.97391 3.98256,0 7.38376,-2.4772 8.76166,-5.97391 C 17.122,5.90148 13.7208,3.42432 9.73824,3.42432 Z"
      fill="#9d9fa0"
      id="path1-0"
      style="stroke-width: 1.06202; fill: #9d9fa0; fill-opacity: 1"
    />
  </g>
</svg>
