<svg width="24" height="24" viewBox="0 0 24 24" fill="none" xmlns="http://www.w3.org/2000/svg">
<path d="M3.19803 15.4643L3.91278 15.2371V15.2371L3.19803 15.4643ZM2.13937 9.45481L2.86184 9.65617L2.13937 9.45481ZM6.56008 4.8893L6.11297 4.28715V4.28715L6.56008 4.8893ZM2.24737 9.11512L1.54127 8.86228L2.24737 9.11512ZM6.08054 21.172L5.65597 21.7902V21.7902L6.08054 21.172ZM5.7978 20.962L5.32879 21.5473V21.5473L5.7978 20.962ZM20.802 15.4643L20.0872 15.2371L20.802 15.4643ZM18.2022 20.962L18.6712 21.5473V21.5473L18.2022 20.962ZM17.9195 21.172L18.344 21.7902V21.7902L17.9195 21.172ZM17.4399 4.8893L16.9928 5.49145V5.49145L17.4399 4.8893ZM21.7526 9.11512L22.4587 8.86228L21.7526 9.11512ZM21.8606 9.45481L21.1382 9.65617L21.8606 9.45481ZM12.1747 2.00327L12.1466 2.75275L12.1747 2.00327ZM11.8253 2.00327L11.8534 2.75275L11.8253 2.00327ZM10.0934 16.6629C9.67916 16.6629 9.34338 16.9987 9.34338 17.4129C9.34338 17.8271 9.67916 18.1629 10.0934 18.1629V17.4129V16.6629ZM13.9066 18.1629C14.3208 18.1629 14.6566 17.8271 14.6566 17.4129C14.6566 16.9987 14.3208 16.6629 13.9066 16.6629V17.4129V18.1629ZM3.19803 15.4643L3.91278 15.2371C3.4224 13.6946 3.07325 12.5932 2.89005 11.6991C2.71029 10.8217 2.70651 10.2135 2.86184 9.65617L2.13937 9.45481L1.41691 9.25346C1.17427 10.124 1.21429 10.9933 1.42058 12.0001C1.62343 12.9902 2.00258 14.1795 2.48328 15.6915L3.19803 15.4643ZM6.56008 4.8893L6.11297 4.28715C4.85491 5.22129 3.86279 5.95669 3.12805 6.63693C2.37993 7.32956 1.84612 8.01095 1.54127 8.86228L2.24737 9.11512L2.95346 9.36796C3.14787 8.82506 3.49926 8.33742 4.14711 7.73762C4.80833 7.12544 5.72295 6.44504 7.0072 5.49145L6.56008 4.8893ZM2.13937 9.45481L2.86184 9.65617C2.88893 9.55896 2.91949 9.46283 2.95346 9.36796L2.24737 9.11512L1.54127 8.86228C1.49514 8.9911 1.45366 9.12158 1.41691 9.25346L2.13937 9.45481ZM12 22V21.25C10.4121 21.25 9.28208 21.2489 8.39641 21.151C7.52914 21.0552 6.96936 20.8725 6.50511 20.5537L6.08054 21.172L5.65597 21.7902C6.39748 22.2994 7.2262 22.5308 8.2316 22.642C9.21862 22.7511 10.4454 22.75 12 22.75V22ZM3.19803 15.4643L2.48328 15.6915C2.96395 17.2034 3.34128 18.3935 3.74669 19.3166C4.15879 20.2549 4.62756 20.9853 5.32879 21.5473L5.7978 20.962L6.26681 20.3768C5.82488 20.0226 5.4793 19.5314 5.12007 18.7134C4.75415 17.8803 4.40318 16.7796 3.91278 15.2371L3.19803 15.4643ZM6.08054 21.172L6.50511 20.5537C6.42362 20.4977 6.34414 20.4387 6.26681 20.3768L5.7978 20.962L5.32879 21.5473C5.43487 21.6323 5.544 21.7133 5.65597 21.7902L6.08054 21.172ZM20.802 15.4643L20.0872 15.2371C19.5968 16.7796 19.2458 17.8803 18.8799 18.7134C18.5207 19.5314 18.1751 20.0226 17.7332 20.3768L18.2022 20.962L18.6712 21.5473C19.3724 20.9853 19.8412 20.2549 20.2533 19.3166C20.6587 18.3935 21.0361 17.2034 21.5167 15.6915L20.802 15.4643ZM12 22V22.75C13.5546 22.75 14.7814 22.7511 15.7684 22.642C16.7738 22.5308 17.6025 22.2994 18.344 21.7902L17.9195 21.172L17.4949 20.5537C17.0306 20.8725 16.4709 21.0552 15.6036 21.151C14.7179 21.2489 13.5879 21.25 12 21.25V22ZM18.2022 20.962L17.7332 20.3768C17.6559 20.4387 17.5764 20.4977 17.4949 20.5537L17.9195 21.172L18.344 21.7902C18.456 21.7133 18.5651 21.6323 18.6712 21.5473L18.2022 20.962ZM17.4399 4.8893L16.9928 5.49145C18.2771 6.44504 19.1917 7.12544 19.8529 7.73762C20.5007 8.33742 20.8521 8.82506 21.0465 9.36796L21.7526 9.11512L22.4587 8.86228C22.1539 8.01095 21.6201 7.32956 20.8719 6.63693C20.1372 5.95669 19.1451 5.22129 17.887 4.28715L17.4399 4.8893ZM20.802 15.4643L21.5167 15.6915C21.9974 14.1795 22.3766 12.9902 22.5794 12.0001C22.7857 10.9933 22.8257 10.124 22.5831 9.25346L21.8606 9.45481L21.1382 9.65617C21.2935 10.2135 21.2897 10.8217 21.11 11.6991C20.9268 12.5932 20.5776 13.6946 20.0872 15.2371L20.802 15.4643ZM21.7526 9.11512L21.0465 9.36796C21.0805 9.46282 21.1111 9.55895 21.1382 9.65617L21.8606 9.45481L22.5831 9.25346C22.5463 9.12159 22.5049 8.99111 22.4587 8.86228L21.7526 9.11512ZM17.4399 4.8893L17.887 4.28715C16.6291 3.35312 15.638 2.61589 14.7775 2.1117C13.902 1.59868 13.0983 1.28737 12.2028 1.2538L12.1747 2.00327L12.1466 2.75275C12.7029 2.7736 13.2607 2.96144 14.0192 3.4059C14.7928 3.85918 15.7084 4.53775 16.9928 5.49145L17.4399 4.8893ZM6.56008 4.8893L7.0072 5.49145C8.2916 4.53775 9.2072 3.85918 9.9808 3.4059C10.7393 2.96144 11.2971 2.7736 11.8534 2.75275L11.8253 2.00327L11.7972 1.2538C10.9017 1.28737 10.098 1.59868 9.22248 2.1117C8.362 2.61589 7.37087 3.35312 6.11297 4.28715L6.56008 4.8893ZM12.1747 2.00327L12.2028 1.2538C12.0677 1.24873 11.9323 1.24873 11.7972 1.2538L11.8253 2.00327L11.8534 2.75275C11.9511 2.74908 12.0489 2.74908 12.1466 2.75275L12.1747 2.00327ZM10.0934 17.4129V18.1629H13.9066V17.4129V16.6629H10.0934V17.4129Z" fill="#3B3B3B"/>
</svg>
