<svg width="200" height="200" viewBox="0 0 200 200" fill="none" xmlns="http://www.w3.org/2000/svg">
<path d="M100 180C144.183 180 180 144.183 180 100C180 55.8172 144.183 20 100 20C55.8172 20 20 55.8172 20 100C20 144.183 55.8172 180 100 180Z" fill="#F5F7F6"/>
<path d="M138 30H62C55.3726 30 50 35.3726 50 42V158C50 164.627 55.3726 170 62 170H138C144.627 170 150 164.627 150 158V42C150 35.3726 144.627 30 138 30Z" stroke="#066FDB" stroke-width="4"/>
<path d="M70 160H130" stroke="#066FDB" stroke-width="4" stroke-linecap="round"/>
<path d="M100 45C85 45 65 55 65 80C65 105 85 125 100 135C115 125 135 105 135 80C135 55 115 45 100 45Z" stroke="#066FDB" stroke-width="4"/>
<path d="M100 85C105.523 85 110 80.5228 110 75C110 69.4772 105.523 65 100 65C94.4772 65 90 69.4772 90 75C90 80.5228 94.4772 85 100 85Z" fill="#066FDB"/>
<path d="M85 110C85 101.716 91.7157 95 100 95C108.284 95 115 101.716 115 110V130H85V110Z" fill="#066FDB"/>
<path d="M65 80H40" stroke="#92BCFF" stroke-width="3" stroke-linecap="round" stroke-dasharray="6 6"/>
<path d="M135 80H160" stroke="#92BCFF" stroke-width="3" stroke-linecap="round" stroke-dasharray="6 6"/>
<path d="M40 84C42.2091 84 44 82.2091 44 80C44 77.7909 42.2091 76 40 76C37.7909 76 36 77.7909 36 80C36 82.2091 37.7909 84 40 84Z" fill="#92BCFF"/>
<path d="M160 84C162.209 84 164 82.2091 164 80C164 77.7909 162.209 76 160 76C157.791 76 156 77.7909 156 80C156 82.2091 157.791 84 160 84Z" fill="#92BCFF"/>
</svg>
