<svg width="200" height="200" viewBox="0 0 200 200" fill="none" xmlns="http://www.w3.org/2000/svg">
<path d="M100 180C144.183 180 180 144.183 180 100C180 55.8172 144.183 20 100 20C55.8172 20 20 55.8172 20 100C20 144.183 55.8172 180 100 180Z" fill="#F5F7F6"/>
<path d="M100 36C112.127 36 124.164 39.6421 133.126 46.8115C142.037 53.9402 148 64.6207 148 79C148 111.169 128.087 136.864 109.75 156.209C104.46 161.79 95.5403 161.79 90.25 156.209C71.9133 136.864 52 111.169 52 79C52 64.6207 57.9632 53.9402 66.874 46.8115C75.8358 39.6421 87.8729 36 100 36Z" fill="#066FDB" fill-opacity="0.2" stroke="#066FDB" stroke-width="4"/>
<path d="M110 85H90C88.8954 85 88 85.8954 88 87V103C88 104.105 88.8954 105 90 105H110C111.105 105 112 104.105 112 103V87C112 85.8954 111.105 85 110 85Z" fill="#066FDB"/>
<path d="M100 70C104.418 70 108 73.5817 108 78V85H92V78C92 73.5817 95.5817 70 100 70Z" stroke="#066FDB" stroke-width="3"/>
<path d="M100 98C101.657 98 103 96.6569 103 95C103 93.3431 101.657 92 100 92C98.3431 92 97 93.3431 97 95C97 96.6569 98.3431 98 100 98Z" fill="#92BCFF"/>
<path d="M125 100L145 80L165 100" stroke="#92BCFF" stroke-width="4" stroke-linecap="round" stroke-linejoin="round"/>
<path d="M145 80V120" stroke="#92BCFF" stroke-width="4" stroke-linecap="round"/>
<path d="M165 66C168.314 66 171 63.3137 171 60C171 56.6863 168.314 54 165 54C161.686 54 159 56.6863 159 60C159 63.3137 161.686 66 165 66Z" fill="#92BCFF"/>
<path d="M150 75L165 60" stroke="#92BCFF" stroke-width="3" stroke-linecap="round"/>
<path d="M180 95C182.761 95 185 92.7614 185 90C185 87.2386 182.761 85 180 85C177.239 85 175 87.2386 175 90C175 92.7614 177.239 95 180 95Z" fill="#92BCFF"/>
<path d="M165 100L180 90" stroke="#92BCFF" stroke-width="3" stroke-linecap="round"/>
<path d="M71 120H67C65.8954 120 65 120.895 65 122V138C65 139.105 65.8954 140 67 140H71C72.1046 140 73 139.105 73 138V122C73 120.895 72.1046 120 71 120Z" fill="#92BCFF"/>
<path d="M86 110H82C80.8954 110 80 110.895 80 112V138C80 139.105 80.8954 140 82 140H86C87.1046 140 88 139.105 88 138V112C88 110.895 87.1046 110 86 110Z" fill="#92BCFF"/>
</svg>
